<?xml version="1.0" encoding="UTF-8"?>
<!-- Generator: Adobe Illustrator 22.0.0, SVG Export Plug-In . SVG Version: 6.00 Build 0)  -->
<svg version="1.1" id="Layer_1" xmlns="http://www.w3.org/2000/svg" xmlns:xlink="http://www.w3.org/1999/xlink" x="0px" y="0px" viewBox="0 0 156 36" style="enable-background:new 0 0 156 36;" xml:space="preserve">
<style type="text/css">
	.st0{fill:#F853A9;}
	.st1{fill:#5AD1A1;}
	.st2{fill:#5553A9;}
	.st3{fill:#FFFFFF;}
	.st4{fill:none;}
</style>
<g>
	<g>
		<path class="st0" d="M57.2,12.5c-0.7,0.8-1.4,1.2-2.1,1.2c-0.3,0-0.8-0.2-1.5-0.7c-0.7-0.4-1.4-0.7-2.1-0.7c-1.7,0-3,0.8-4.2,2.4    c-1.1,1.6-1.7,3.4-1.7,5.5c0,1.9,0.4,3.5,1.3,4.7c0.8,1.2,2,1.8,3.5,1.8c1.8,0,3.1-0.5,4.1-1.5c0.2-0.2,0.4-0.6,0.6-1    c0.2-0.5,0.4-0.8,0.6-1.1c0.2-0.3,0.4-0.4,0.6-0.4c0.2,0,0.4,0.1,0.5,0.2s0.2,0.3,0.2,0.4c0,0.4-0.2,0.8-0.6,1.4    c-0.4,0.6-0.9,1.1-1.5,1.7c-0.6,0.6-1.4,1.1-2.4,1.5c-1,0.4-2,0.6-3,0.6c-2.6,0-4.6-0.8-6.2-2.4c-1.5-1.6-2.3-3.9-2.3-6.9    c0-4.1,1.2-7.5,3.5-10.2c2.3-2.7,5.1-4.1,8.3-4.1c1.7,0,3,0.4,4,1.3c0.9,0.9,1.4,2.1,1.4,3.7C58.2,10.8,57.9,11.6,57.2,12.5z"/>
		<path class="st0" d="M65.1,14.4c0.5,0.5,0.8,1.1,0.8,1.7c0,0.9-0.4,1.9-1.1,3.1s-1.5,2.2-2.3,3.2c-0.8,0.9-1.1,1.6-1.1,2    c0,0.4,0.2,0.6,0.7,0.6c0.6,0,1.7-0.4,3.3-1.1c1.6-0.7,2.4-1.1,2.5-1.1c0.1,0,0.2,0,0.2,0.1c0.1,0.1,0.1,0.1,0.1,0.1    c0,0.2-0.4,0.6-1.3,1.3c-0.9,0.7-2,1.4-3.2,2.1c-1.2,0.7-2.2,1-3,1c-0.7,0-1.3-0.2-1.8-0.5c-0.5-0.3-0.7-0.8-0.7-1.4    c0-1.3,0.8-3,2.4-5c0.4-0.6,0.6-1,0.6-1.4c0-0.1-0.1-0.2-0.3-0.2c-0.2,0-0.8,0.4-1.9,1.1c-1.1,0.8-1.9,1.1-2.5,1.1    c-1.2,0-1.7-0.5-1.7-1.6c0-0.9,0.3-1.7,1-2.5c0.7-0.8,1.5-1.4,2.4-1.9c0.9-0.5,1.9-0.9,2.8-1.1c0.9-0.3,1.6-0.4,2.2-0.4    C63.9,13.6,64.6,13.9,65.1,14.4z"/>
		<path class="st0" d="M71.1,13.4c1.1,0,1.7,0.6,1.7,1.9c0,0-0.1,0.4-0.3,1.2c-0.2,0.8-0.4,1.7-0.6,2.7c-0.2,1-0.3,1.9-0.3,2.6    c0,0.6,0.1,1.1,0.2,1.4c0.1,0.3,0.4,0.4,0.8,0.4c0.7,0,1.5-0.6,2.3-1.9c0.8-1.2,1.5-2.7,1.9-4.2c0.5-1.7,1.3-2.6,2.3-2.6    c0.4,0,0.7,0.2,1,0.5c0.2,0.3,0.4,0.8,0.4,1.3c0,0.7-0.1,1.9-0.4,3.7c-0.3,1.8-0.6,3.2-0.8,4.3c0.3-0.1,0.7-0.4,1.2-0.8    c0.6-0.4,1.1-0.7,1.5-0.9c0.4-0.3,0.8-0.4,0.9-0.4c0.2,0,0.3,0.1,0.3,0.2c0,0.1-0.1,0.3-0.4,0.5c-0.3,0.3-0.7,0.6-1.3,1.1    c-0.6,0.5-1,0.8-1.4,1.1c-0.4,0.3-0.9,0.7-1.5,1.2c-0.2,1.1-0.5,2.1-1,3.2c-0.5,1-1.2,2-2.1,2.9c-0.9,0.9-2,1.3-3.1,1.3    c-0.7,0-1.3-0.2-1.7-0.6C70.3,33,70,32.5,70,31.8c0-0.8,0.3-1.7,1-2.5c0.7-0.8,1.4-1.5,2.2-2s1.8-1,2.9-1.6l0.5-4    c-0.7,1.5-1.5,2.7-2.5,3.5c-1,0.8-2.2,1.2-3.4,1.2c-1.2,0-2.1-0.5-2.8-1.6c-0.6-1-1-2.3-1-3.9c0-2.9,0.4-4.9,1.1-6    C68.9,14,69.9,13.4,71.1,13.4z M73.8,28.8c-0.6,0.7-0.9,1.3-0.9,2c0,0.5,0.2,0.7,0.7,0.7c0.4,0,0.9-0.5,1.4-1.4    c0.5-1,0.9-1.9,1.1-2.8C75.1,27.6,74.4,28.1,73.8,28.8z"/>
		<path class="st0" d="M82.4,20.4c0.1-1,0.3-2.1,0.5-3.3c0.2-1.2,0.6-2.2,1.1-3s1.1-1.2,1.7-1.2c0.7,0,1.2,0.2,1.7,0.6    c0.5,0.4,0.7,0.9,0.7,1.6c0,0.5-0.2,1.7-0.7,3.6c-0.5,1.9-0.7,3.4-0.7,4.5c0,1.1,0.5,1.6,1.5,1.6c1.1,0,1.8-1,2.1-3    c0-0.3,0.1-0.8,0.2-1.5c0.1-0.7,0.1-1.3,0.2-1.7c0.1-0.4,0.1-0.9,0.2-1.6c0.1-0.6,0.2-1.1,0.3-1.5c0.1-0.4,0.3-0.8,0.5-1.1    c0.2-0.4,0.4-0.7,0.7-0.9c0.3-0.2,0.6-0.3,0.9-0.3c0.8,0,1.4,0.2,1.8,0.6c0.4,0.4,0.6,1,0.6,1.7c0,0.6-0.3,1.8-0.8,3.7    c-0.5,1.8-0.8,3.2-0.8,3.9c0,0.4,0.1,0.8,0.4,1.1c0.3,0.3,0.6,0.4,1,0.4c0.4,0,0.7-0.2,1-0.5c0.3-0.4,0.6-0.9,0.8-1.6    c0.2-0.7,0.4-1.4,0.5-2c0.1-0.6,0.3-1.4,0.5-2.3c0.2-1,0.3-1.7,0.4-2c0.1-0.5,0.4-0.9,1-1.3c0.6-0.4,1.1-0.6,1.7-0.6    c0.4,0,0.8,0.2,1.2,0.5c0.4,0.3,0.6,0.7,0.6,1.2c0,0.7-0.2,1.9-0.6,3.6c-0.4,1.8-0.6,3.1-0.6,4c0,1,0.5,1.4,1.4,1.4    c0.4,0,1.1-0.4,2-1.1c1-0.7,1.5-1.1,1.6-1.1c0.3,0,0.4,0.1,0.4,0.3c0,0.2-0.3,0.6-1,1.3c-0.6,0.7-1.5,1.3-2.4,1.9    c-1,0.6-1.8,0.9-2.6,0.9c-1.6,0-2.6-0.9-3.2-2.8c-0.5,0.9-1.1,1.6-1.9,2.2s-1.7,0.8-2.7,0.8c-1.5,0-2.6-0.6-3.3-1.9    c-1.4,1.4-2.8,2.2-4.4,2.2c-1,0-1.9-0.4-2.6-1.2c-0.7-0.8-1-1.9-1-3.3C82.3,22.4,82.3,21.5,82.4,20.4z M98.4,31.1    c-0.2,0.1-0.6,0.1-1.2,0.2c-0.6,0-1.3,0.1-2.1,0.1c-0.8,0-1.9,0.1-3.3,0.2c-1.4,0.1-2.9,0.2-4.4,0.4c-0.5,0-0.9,0.1-1,0.1    c-0.9,0-1.3-0.2-1.3-0.6c0-0.1,0.1-0.3,0.2-0.4c0.2-0.2,0.4-0.3,0.8-0.5c0.4-0.2,0.8-0.3,1.3-0.5c0.5-0.2,1.2-0.3,2-0.4    c0.8-0.1,1.7-0.1,2.6-0.1c1.2,0,2.3,0.1,3.4,0.3c1.1,0.2,2,0.4,2.5,0.6c0.6,0.2,0.9,0.4,0.9,0.6C98.7,30.9,98.6,31,98.4,31.1z"/>
		<path class="st0" d="M110.8,24.7c0.6,0.5,1.5,0.8,2.6,0.8c0.9,0,1.8-0.2,2.7-0.7c0.9-0.5,1.6-0.9,2.2-1.4c0.5-0.5,0.9-0.7,0.9-0.7    c0.3,0,0.4,0.1,0.4,0.3c0,0.2-0.2,0.6-0.6,1.1c-0.4,0.5-0.9,1-1.5,1.6c-0.6,0.5-1.4,1-2.4,1.4c-1,0.4-1.9,0.6-2.9,0.6    c-2,0-3.6-0.6-4.6-1.7c-1.1-1.1-1.6-2.5-1.6-4.2c0-2,0.6-3.9,1.9-5.5c1.3-1.7,2.9-2.5,4.9-2.5c1.1,0,2,0.4,2.6,1.2    c0.6,0.8,0.9,1.8,0.9,2.8c0,1.6-0.4,2.9-1.3,4.1c-0.8,1.2-1.7,1.8-2.5,1.8c-0.7,0-1.3-0.1-1.8-0.3c-0.5-0.2-0.8-0.5-1-0.8    C109.9,23.4,110.2,24.1,110.8,24.7z M110.7,19c-0.5,0.8-0.7,1.6-0.7,2.5c0.7-0.2,1.3-0.6,1.9-1.2c0.6-0.6,0.8-1.2,0.8-1.8    c0-0.5-0.2-0.7-0.6-0.7C111.6,17.8,111.1,18.2,110.7,19z"/>
		<path class="st0" d="M124.9,20.5c0.7,0,1.3-0.2,1.8-0.3c0.5-0.2,1-0.5,1.7-1c0.1-1.6,0.5-2.9,1.1-4c0.6-1.1,1.3-1.6,2.2-1.6    c0.7,0,1.3,0.2,1.7,0.7c0.5,0.5,0.7,1,0.7,1.7c0,0.7-0.2,1.5-0.6,2.5c-0.4,0.9-0.9,1.7-1.5,2.3c-0.3,1.1-0.4,2-0.3,2.7    c0,0.3,0.2,0.6,0.4,0.8c0.2,0.2,0.5,0.3,0.8,0.3c0.8,0,1.7-0.3,2.8-1c1.1-0.7,1.7-1,1.8-1c0.3,0,0.4,0.1,0.5,0.4    c0,0.2-0.3,0.6-0.8,1.2c-0.6,0.6-1.4,1.2-2.4,1.8c-1,0.6-1.9,0.9-2.8,0.9c-2.5,0-3.7-1.6-3.6-4.9c-1.2,0.7-2.5,1-3.8,1    c-0.6,3.2-1.7,4.8-3.1,4.8c-1.8,0-2.8-1-2.8-3c0-0.7,0.1-1.4,0.3-2.2c0.2-0.8,0.6-1.4,1-1.8c-0.4-2.7-0.6-4.6-0.6-5.7    c0-0.7,0.4-1.3,1.1-1.9c0.7-0.6,1.4-0.8,2.2-0.8c0.8,0,1.4,0.2,1.9,0.6c0.5,0.4,0.8,1,0.8,1.8C125.4,16.4,125.2,18.3,124.9,20.5z"/>
		<path class="st0" d="M149.3,14.7c0.2,0.3,0.4,0.8,0.4,1.5c0,0.3-0.2,1.4-0.6,3.3c-0.5,2-0.6,3.3-0.6,4.2c0.1,0.9,0.4,1.3,0.9,1.3    c0.4,0,0.8-0.2,1.4-0.6c0.5-0.4,1-0.8,1.4-1.2c0.4-0.4,0.7-0.6,0.8-0.6c0.2,0,0.3,0.1,0.3,0.3c0,0.1-0.2,0.5-0.6,1.2    c-0.5,0.6-1.1,1.3-1.9,1.9c-0.8,0.6-1.7,1-2.5,1c-0.8,0-1.5-0.3-2-0.8c-0.6-0.6-0.9-1.4-1-2.5c-1.6,2.6-3.2,3.9-5,3.9    c-2.1,0-3.3-1.6-3.5-4.7c-0.2-2.2,0-4.4,0.7-6.5c0.7-2.1,1.6-3.1,2.7-3.1c1.6,0,2.4,0.7,2.5,2c0.1,0.8-0.1,2.1-0.6,4    c-0.5,1.9-0.7,3.1-0.6,3.7c0.1,0.9,0.4,1.4,1,1.4c0.9,0,1.7-1.2,2.4-3.5c0.1-0.4,0.3-1,0.4-1.8c0.2-0.8,0.3-1.4,0.5-1.9    c0.1-0.4,0.3-0.9,0.5-1.4c0.2-0.5,0.4-0.9,0.7-1.1c0.3-0.2,0.6-0.3,0.9-0.3C148.6,14.2,149.1,14.4,149.3,14.7z"/>
	</g>
	<g>
		<path class="st1" d="M35.1,6c-0.6-1.3-1.7-2.4-3-3c-1.3-0.6-2.7-0.9-4.2-0.9c-3.3-0.1-5.4,1.1-7.9,3.3c-0.8,0.7-1.5,1.6-2.1,2.5    c0.1,0.1,0.2,0.2,0.3,0.3c2.3,2.5,3.9,6.2,4,9.6c0.1,3.6-1.5,10.2-4.1,11.2c-0.3,0.1-0.7,0.2-1.2,0.1c0.4,0.1,0.9,0.2,2,0    c3.3-0.4,5.2-1.8,7.5-3.9c0.8-0.8,8.1-8.2,9.4-14C36.2,9.6,35.7,7.5,35.1,6z"/>
		<path class="st0" d="M15.3,15.7c0.4-2.8,1.2-5.6,2.7-7.9c-1.9-2-4.7-3-7.5-3.2C9.2,4.4,7.9,4.5,6.8,5C5.6,5.4,4.5,6.2,3.9,7.3    c-0.7,1.3-1.4,2.9-1.2,4.3c0.6,5.1,6.7,11.9,7.4,12.7c1.8,2.1,3.3,3.3,5.8,4.4c0.5,0.2,0.8,0.3,1.1,0.4c-0.2-0.1-0.4-0.1-0.6-0.2    C12.8,27,14.7,19.7,15.3,15.7z"/>
		<path class="st2" d="M18.1,28.9c2.6-1,4.2-7.7,4.1-11.2c-0.1-3.4-1.7-7.1-4-9.6c-0.1-0.1-0.2-0.2-0.3-0.3    c-1.5,2.3-2.3,5.1-2.7,7.9c-0.6,4.1-2.5,11.3,1.1,13.2c0.2,0.1,0.4,0.2,0.6,0.2C17.5,29.2,17.8,29.1,18.1,28.9z"/>
		<path class="st3" d="M21.5,20.2c-0.2-0.3-0.5-0.5-0.8-0.5s-0.7-0.1-1,0c-0.8,0.1-1.2,0.4-1.7,1c-0.2,0.2-0.3,0.4-0.4,0.6    c-0.5-0.4-1.2-0.5-1.8-0.4c-0.3,0-0.6,0.1-0.8,0.2c-0.3,0.1-0.5,0.4-0.6,0.6c-0.1,0.3-0.2,0.7-0.1,1c0.3,1.1,2,2.4,2.2,2.5    c0.5,0.4,0.9,0.6,1.5,0.7c0.1,0,0.2,0,0.3,0c0.1,0,0.2,0,0.4-0.1c0.7-0.2,1.1-0.6,1.5-1.1c0.2-0.2,1.5-2.1,1.6-3.4    C21.9,21,21.7,20.5,21.5,20.2z"/>
	</g>
	<rect class="st4" width="156" height="36"/>
</g>
<g>
</g>
<g>
</g>
<g>
</g>
<g>
</g>
<g>
</g>
<g>
</g>
<g>
</g>
<g>
</g>
<g>
</g>
<g>
</g>
<g>
</g>
<g>
</g>
<g>
</g>
<g>
</g>
<g>
</g>
</svg>